# xmcd
#
# Track frame offsets:
#	150
#	18116
#	34083
#	52820
#	73605
#	91869
#	112704
#	127594
#	140969
#	159087
#	179598
#	194115
#	207428
#	216691
#	231896
#
# Disc length: 3362 seconds
#
# Revision: 1
# Processed by: cddbd v1.5.1PL2 Copyright (c) Steve Scherf et al.
# Submitted via: audiograbber 1.83.01
#
DISCID=d10d200f
DTITLE=The Bang Bags - Sweet Soul Music
DYEAR=2001
DGENRE=Soul
TTITLE0=Take Me To The River
TTITLE1=Goin´ To The Bank
TTITLE2=Lover Boy
TTITLE3=Help Me Through The Night
TTITLE4=Can´t Get Next To You Baby
TTITLE5=Let´s Stay Together
TTITLE6=Hard To Handle
TTITLE7=Higher And Higher
TTITLE8=Hard Times
TTITLE9=Need Somebody To Love
TTITLE10=Ain´t That A Lot Of Love
TTITLE11=Lonely Avenue
TTITLE12=Sweet Soul Music
TTITLE13=I Need My Baby
TTITLE14=It Started With A Kiss
EXTD=
EXTT0=
EXTT1=
EXTT2=
EXTT3=
EXTT4=
EXTT5=
EXTT6=
EXTT7=
EXTT8=
EXTT9=
EXTT10=
EXTT11=
EXTT12=
EXTT13=
EXTT14=
PLAYORDER=
